<?xml version="1.0" encoding="utf-8"?>
<!-- Generator: Adobe Illustrator 22.1.0, SVG Export Plug-In . SVG Version: 6.00 Build 0)  -->
<svg version="1.1" id="Layer_1" xmlns="http://www.w3.org/2000/svg" xmlns:xlink="http://www.w3.org/1999/xlink" x="0px" y="0px"
	 viewBox="0 0 172.9 172.5" style="enable-background:new 0 0 172.9 172.5;" xml:space="preserve">
<style type="text/css">
	.st0{fill:#83224B;}
	.st1{fill:#2654A5;}
</style>
<path class="st0" d="M0,0l0,81.2l81.2,0l0-81.2L0,0z M40.6,58.2c-3,0-6-0.4-8.7-1.2c-3.3,2.5-8.4,5.6-13.5,5.6
	c2.5-2.4,3.4-6.8,3.7-10.5c-4.5-3.6-7.3-8.4-7.3-13.8c0-11,11.5-19.8,25.7-19.8s25.8,8.9,25.8,19.8C66.3,49.3,54.8,58.2,40.6,58.2z"
	/>
<g>
	<path class="st1" d="M42.8,109.9c-7.5-1.4-14.2,4.3-14.2,11.8c0,4.1,0.8,8.3,1.6,12.8c0.3,1.4,0.5,2.9,0.8,4.4c0.5,3,3,5.1,6,5.1
		c2.9,0,5.4-2.1,6-4.9c0-0.5,2-6.1-2.2-11.3c-2.2-2.6-5.3-4.2-8.7-4.4c0-0.6,0-1.2,0-1.7c0-5.2,4.6-9.4,10.2-8.4
		c3.3,0.6,6,3.3,6.7,6.5c0.6,3-0.2,5.9-2.3,8l2.4,2.4c2.9-2.9,4.1-7.1,3.2-11.1C51.3,114.4,47.5,110.7,42.8,109.9z M38.1,129.9
		c1.6,2,2.3,5.6,1.6,8.1c-0.4,1.5-1.3,2.5-2.7,2.5c-1.3,0-2.4-1-2.6-2.3c-0.3-1.5-0.5-3-0.8-4.4c-0.4-2.4-0.9-4.7-1.2-6.9
		C34.6,127.1,36.7,128.2,38.1,129.9z"/>
	<path class="st1" d="M0,91.3l0,81.2l81.2,0l0-81.2L0,91.3z M53.9,135c-2.8,2.8-5.8,7.6-5,11.7c0.2,0.8,0.2,1.6,0.2,2.4
		c0,6.6-5.4,12.1-12,12.1c-6.6,0-12-5.5-12-12.1c0-4.4-0.9-9-1.7-13.4c-0.9-4.5-1.7-9.3-1.7-14c0-10.4,8.5-19,18.8-19
		c10.4,0,18.8,8.6,18.8,19C59.4,126.7,57.5,131.4,53.9,135z"/>
</g>
<g>
	<path class="st0" d="M132.3,119.6c-6.8,0-12.3,5.5-12.3,12.3c0,6.8,5.5,12.3,12.3,12.3c6.8,0,12.3-5.5,12.3-12.3
		C144.6,125.1,139.1,119.6,132.3,119.6z M132.3,140.7c-4.8,0-8.8-3.9-8.8-8.8c0-4.8,3.9-8.8,8.8-8.8c1.4,0,2.8,0.4,4,1
		c-1.3,1-2.2,2.5-2.2,4.3c0,3.5,3.3,6.1,6.9,5C140.2,137.5,136.7,140.7,132.3,140.7z"/>
	<path class="st0" d="M91.7,91.3l0,81.2l81.2,0l0-81.2L91.7,91.3z M161.9,133.1c-0.5,0.6-13.4,14.6-29.5,14.6s-29-14-29.5-14.6
		c-0.6-0.7-0.6-1.7,0-2.3c0.5-0.6,13.4-14.6,29.5-14.6c16.1,0,29,14,29.5,14.6C162.4,131.4,162.4,132.4,161.9,133.1z"/>
</g>
<path class="st1" d="M91.7,0l0,81.2l81.2,0l0-81.2L91.7,0z M154.4,53.5c0,3.5-1.3,15.1-16.4,15.1c-9.1,0-14-3.6-17-8.1
	c-3-4.6-10-15.2-10-15.2c-1.3-2-0.8-4.5,1-5.7c1.9-1.1,4.4-0.5,5.7,1.5l4.4,6l0-26.9c0-1.8,1.4-3.2,3.2-3.2c1.8,0,3.2,1.4,3.2,3.2
	l0,16.2c0,0.6,0.5,1.1,1.1,1.1c0.6,0,1.1-0.5,1.1-1.1l0-20.5c0-1.8,1.4-3.2,3.2-3.2c1.8,0,3.2,1.5,3.2,3.2l0,20.5
	c0,0.6,0.5,1.1,1.1,1.1c0.6,0,1.1-0.5,1.1-1.1l0-18.3c0-1.8,1.5-3.2,3.2-3.2c1.8,0,3.2,1.4,3.2,3.2l0,20.5c0,0.6,0.5,1.1,1.1,1.1
	c0.6,0,1.1-0.5,1.1-1.1l0-14c0-1.8,1.5-3.2,3.2-3.2c1.8,0,3.2,1.5,3.2,3.2L154.4,53.5z"/>
</svg>
